<?xml version="1.0" standalone="no"?>
<!DOCTYPE svg PUBLIC "-//W3C//DTD SVG 20010904//EN"
 "http://www.w3.org/TR/2001/REC-SVG-20010904/DTD/svg10.dtd">
<svg version="1.0" xmlns="http://www.w3.org/2000/svg"
 width="233.000000pt" height="233.000000pt" viewBox="0 0 233.000000 233.000000"
 preserveAspectRatio="xMidYMid meet">
<metadata>
Created by potrace 1.11, written by Peter Selinger 2001-2013
</metadata>
<g transform="translate(0.000000,233.000000) scale(0.100000,-0.100000)"
fill="#000000" stroke="none">
<path d="M220 2080 c0 -5 -7 -7 -15 -4 -9 4 -15 0 -15 -8 0 -8 -11 -21 -25
-28 -14 -7 -25 -19 -25 -27 0 -7 -4 -13 -10 -13 -5 0 -10 4 -10 9 0 5 -9 7
-20 4 -11 -3 -20 -9 -20 -13 0 -5 -9 -12 -20 -15 -23 -7 -27 -43 -5 -51 8 -4
15 -17 15 -31 0 -13 -4 -22 -10 -18 -13 8 0 -98 14 -107 17 -11 14 -151 -4
-165 -13 -11 -13 -12 2 -13 11 0 17 -7 16 -17 -4 -56 3 -143 12 -138 6 4 10
-5 10 -20 0 -14 -4 -24 -9 -20 -5 3 -12 1 -16 -5 -4 -6 -11 -8 -16 -5 -13 9
-11 -4 4 -19 7 -7 18 -11 25 -8 7 2 12 -6 12 -22 0 -16 -6 -26 -15 -26 -9 0
-15 -9 -15 -25 0 -26 15 -34 23 -12 3 6 6 -28 6 -77 1 -100 -7 -114 -11 -18
-1 34 -6 62 -10 62 -4 0 -9 -4 -9 -10 -1 -5 -2 -14 -3 -19 -2 -15 -16 -26 -16
-13 0 7 -4 12 -10 12 -5 0 -10 -9 -10 -21 0 -11 4 -18 9 -15 16 10 41 -5 41
-24 0 -10 -7 -20 -15 -24 -10 -4 -15 -20 -15 -51 0 -26 -4 -44 -9 -41 -5 3
-12 -1 -15 -9 -7 -19 4 -75 15 -75 4 0 9 -17 11 -37 3 -42 28 -59 28 -19 0 14
5 26 10 26 13 0 13 -87 1 -95 -5 -3 -17 2 -25 11 -14 13 -16 13 -16 1 0 -9 -5
-17 -12 -19 -8 -3 -5 -12 10 -28 12 -13 22 -29 22 -34 0 -6 -4 -5 -9 3 -6 9
-10 4 -13 -18 -2 -17 -1 -31 4 -31 4 0 8 7 8 17 0 9 3 13 6 10 4 -4 6 -71 5
-149 -1 -135 10 -205 29 -193 11 7 22 -11 29 -47 3 -16 10 -28 16 -28 5 1 13
-7 17 -17 6 -12 7 -9 3 10 -4 18 0 33 10 43 14 14 16 13 21 -15 9 -41 24 -50
19 -11 -2 17 0 28 5 25 4 -3 11 1 14 7 3 7 4 4 3 -6 -1 -10 4 -21 11 -23 6 -3
12 0 12 6 0 7 10 5 25 -5 14 -9 25 -13 25 -10 0 4 12 -2 27 -11 15 -10 24 -12
20 -5 -5 6 -4 12 2 12 5 0 11 8 14 18 3 14 6 12 15 -9 11 -27 47 -44 58 -28 3
6 14 7 24 4 22 -7 38 14 19 25 -10 7 -10 11 0 23 9 11 20 13 41 7 18 -5 32 -5
36 1 3 5 15 3 27 -6 12 -8 28 -15 37 -15 9 0 24 -10 35 -23 l19 -22 6 25 c5
22 7 23 13 7 4 -10 7 -27 7 -37 0 -10 3 -21 8 -23 11 -8 11 47 0 61 -21 25 1
23 26 -3 21 -21 30 -24 41 -15 8 6 19 9 24 6 6 -4 19 -1 29 5 14 9 34 8 85 -4
37 -8 67 -11 67 -6 0 5 9 4 19 -3 11 -7 19 -16 18 -21 -1 -5 13 -11 32 -13 19
-2 42 -11 52 -20 18 -17 169 -29 169 -13 0 5 10 5 23 0 12 -4 39 -6 60 -3 23
2 37 0 37 -7 0 -19 17 -12 23 9 4 17 13 20 44 19 21 -1 44 -7 52 -13 10 -8 15
-8 18 1 3 9 11 9 28 -3 13 -9 29 -13 35 -9 6 4 22 0 35 -9 21 -14 24 -14 37 1
7 9 26 24 42 34 29 17 61 14 110 -12 14 -8 23 -6 40 10 12 12 28 21 34 21 7 0
12 5 12 11 0 12 21 9 93 -9 21 -6 37 -6 37 -1 0 5 5 9 10 9 6 0 10 -7 10 -15
0 -21 38 -19 43 3 3 14 6 13 15 -8 11 -25 11 -25 11 8 1 35 3 37 32 21 13 -7
18 -16 14 -29 -3 -10 -1 -21 4 -24 5 -4 12 8 16 25 6 28 8 29 21 12 13 -16 14
-6 10 82 -3 55 -5 109 -6 120 -3 70 1 158 9 198 5 27 5 47 0 47 -5 0 -9 5 -9
11 0 6 7 9 15 5 24 -9 23 48 -1 72 -17 16 -10 51 13 69 10 8 16 36 19 85 4 65
3 71 -9 55 -8 -10 -21 -16 -28 -15 -9 2 -16 -11 -20 -37 -6 -39 -6 -39 -8 12
-1 48 1 53 24 59 30 7 32 20 6 29 -23 7 -35 35 -21 49 7 7 10 4 10 -10 0 -20
55 -61 63 -47 5 8 2 88 -4 108 -2 6 1 29 5 53 5 25 4 48 -2 55 -20 26 -34 146
-27 237 6 77 5 91 -9 96 -19 7 -21 24 -3 24 8 0 12 15 12 43 0 37 -3 43 -17
39 -14 -3 -18 2 -18 27 0 33 16 42 23 14 3 -10 5 -2 5 17 0 19 -2 29 -5 23 -7
-18 -23 -16 -23 2 0 9 7 18 15 21 17 7 21 44 5 44 -5 0 -10 9 -10 21 0 11 5
17 10 14 6 -4 10 8 10 29 0 19 -5 38 -11 42 -8 4 -9 -1 -4 -16 5 -16 4 -21 -6
-18 -8 3 -17 18 -20 34 -4 16 -7 23 -8 16 0 -7 -5 -11 -10 -8 -19 12 -141 33
-141 25 0 -5 -4 -9 -10 -9 -5 0 -10 5 -10 11 0 18 -24 34 -52 34 -17 0 -41
-12 -63 -32 -35 -32 -52 -34 -83 -10 -10 8 -16 7 -23 -4 -8 -11 -9 -10 -7 6 2
11 -2 20 -9 20 -6 0 -15 3 -19 7 -4 4 -13 3 -20 -3 -11 -9 -15 -7 -21 7 -6 17
-7 17 -13 -1 -8 -22 -39 -29 -58 -13 -11 9 -12 7 -7 -14 6 -25 5 -26 -32 -24
-21 1 -48 7 -60 14 -12 6 -33 12 -47 12 -14 0 -28 5 -31 10 -4 6 -11 8 -16 4
-5 -3 -17 0 -25 7 -12 9 -19 8 -36 -7 -11 -11 -23 -14 -25 -9 -4 14 -81 9 -99
-6 -11 -9 -15 -8 -20 5 -9 22 -70 21 -83 -1 -9 -16 -10 -16 -11 5 0 28 -14 28
-33 2 -14 -21 -24 -21 -89 -3 -14 3 -16 0 -12 -14 5 -15 3 -14 -13 3 -21 26
-63 41 -63 24 0 -7 9 -14 20 -17 11 -3 20 -9 20 -14 0 -16 -42 -9 -57 9 -13
16 -14 15 -10 -5 6 -26 -5 -28 -65 -14 -30 7 -38 6 -41 -8 -4 -15 -5 -15 -6 0
-1 17 -51 33 -51 17 0 -6 -7 -7 -15 -4 -9 3 -18 -1 -21 -9 -7 -17 -104 -18
-116 -1 -4 6 -25 10 -47 10 -26 1 -41 6 -41 14 0 6 -6 12 -12 13 -45 3 -61 7
-69 20 -7 11 -11 12 -17 1 -7 -10 -18 -11 -55 -1 -26 6 -47 14 -47 18 0 11
-54 8 -62 -3 -5 -7 -8 -4 -8 7 0 11 -8 17 -25 17 -14 0 -25 -4 -25 -10z m1630
-452 c0 -48 -10 -78 -26 -78 -8 0 -14 10 -14 24 0 13 -3 38 -6 55 -6 28 -4 31
20 31 23 0 26 -4 26 -32z m-480 -38 c0 -16 5 -30 10 -30 6 0 10 -11 10 -25 0
-14 -6 -25 -13 -25 -9 0 -14 -14 -15 -41 -2 -33 2 -42 18 -46 30 -8 27 -49 -5
-57 -46 -12 -65 8 -65 69 0 34 -5 59 -15 69 -17 16 -21 61 -5 51 6 -3 10 1 10
9 0 15 45 56 61 56 5 0 9 -13 9 -30z m890 -16 c0 -8 -4 -12 -10 -9 -5 3 -10
10 -10 16 0 5 5 9 10 9 6 0 10 -7 10 -16z m-1642 -24 c19 0 22 -5 22 -40 0
-38 -2 -40 -30 -40 -16 0 -30 5 -30 10 0 18 -39 11 -50 -9 -7 -15 -6 -23 6
-35 19 -20 29 -20 48 -1 13 13 19 13 36 3 27 -17 25 -32 -6 -57 -94 -74 -209
66 -124 151 27 26 36 30 68 24 20 -3 47 -6 60 -6z m142 -2 c0 -9 3 -9 12 0 7
7 22 12 35 12 20 0 23 -5 23 -35 0 -30 -3 -35 -23 -35 -29 0 -47 -18 -47 -47
0 -16 6 -23 20 -23 16 0 20 -7 20 -30 l0 -31 -62 3 c-60 3 -63 4 -66 31 -3 20
1 27 14 27 14 0 16 7 11 37 -4 21 -11 39 -17 41 -11 4 -14 45 -3 55 12 12 83
8 83 -5z m242 1 c20 -11 48 -65 48 -94 0 -12 -8 -14 -35 -9 -45 7 -97 -4 -92
-19 5 -16 45 -21 61 -8 9 8 22 8 40 1 33 -12 33 -16 -6 -40 -48 -29 -94 -26
-129 9 -48 49 -35 137 25 161 30 12 64 12 88 -1z m204 -10 c32 -19 34 -24 34
-75 0 -34 4 -53 10 -49 6 4 10 -6 10 -24 l0 -30 -80 1 c-86 0 -102 9 -102 53
0 38 29 65 69 65 22 0 32 4 28 11 -4 6 -19 10 -33 9 -72 -5 -81 9 -29 40 40
25 52 25 93 -1z m567 -6 c-1 -11 -19 -53 -40 -94 -32 -61 -43 -75 -65 -77 -25
-3 -30 4 -71 90 -25 51 -43 96 -40 100 2 4 52 6 111 5 100 -3 107 -5 105 -24z
m-268 7 c3 -5 6 -34 7 -64 1 -37 6 -57 15 -61 8 -3 13 -15 11 -27 -3 -20 -10
-23 -60 -26 l-58 -3 0 31 c0 20 5 30 15 30 11 0 15 11 15 39 0 25 -5 41 -15
45 -8 3 -15 15 -15 26 0 17 6 20 39 20 22 0 42 -4 46 -10z m-1398 -42 c-3 -7
-5 -2 -5 12 0 14 2 19 5 13 2 -7 2 -19 0 -25z m2158 -259 c8 -25 3 -31 -19
-23 -20 8 -21 44 -2 44 8 0 18 -9 21 -21z m-810 -34 c0 -14 -8 -21 -27 -23
-22 -3 -28 1 -28 16 0 25 10 33 35 30 12 -2 20 -10 20 -23z m-972 3 c7 -23 -4
-38 -29 -38 -19 0 -24 5 -24 25 0 20 5 25 24 25 13 0 26 -6 29 -12z m1455 -21
c2 -19 -1 -27 -12 -27 -8 0 -17 -13 -21 -32 -12 -60 -16 -68 -36 -68 -30 0
-43 44 -24 81 9 16 22 29 30 29 8 0 15 8 15 18 0 42 43 42 48 -1z m-1368 8
c10 -12 10 -18 0 -30 -25 -30 -61 -7 -46 30 3 8 12 15 19 15 8 0 20 -7 27 -15z
m168 -13 c2 -13 -3 -25 -13 -28 -11 -5 -13 -10 -5 -20 6 -7 10 -28 8 -46 -2
-25 -8 -34 -25 -36 -17 -3 -24 3 -29 22 -3 13 -12 27 -20 30 -21 8 -17 47 6
53 11 3 20 13 20 22 0 24 10 32 35 29 12 -2 21 -12 23 -26z m326 12 c3 -9 3
-21 -1 -27 -4 -7 -10 -30 -13 -52 -5 -41 -24 -54 -58 -39 -9 4 -25 8 -35 9
-17 2 -36 21 -37 37 0 4 7 14 16 22 12 12 20 13 35 6 25 -14 39 -5 39 24 0 12
3 26 7 29 12 13 41 7 47 -9z m570 0 c19 -7 21 -40 4 -50 -7 -5 -4 -10 11 -16
16 -5 21 -15 19 -30 -4 -31 -40 -31 -48 -1 -5 22 -5 22 -25 -7 -24 -37 -57
-39 -75 -6 -16 31 -7 56 20 56 12 0 33 14 47 30 28 33 25 32 47 24z m-1349
-34 c0 -18 -6 -26 -23 -28 -27 -4 -40 22 -22 44 19 22 45 13 45 -16z m578 6
c30 -24 29 -56 -2 -56 -9 0 -24 -9 -34 -20 -20 -24 -30 -25 -47 -5 -10 12 -8
23 10 60 12 25 27 45 33 45 7 -1 25 -11 40 -24z m437 -15 c6 -17 9 -34 6 -39
-3 -5 3 -12 14 -15 24 -6 27 -45 5 -53 -22 -9 -47 15 -40 37 4 13 1 19 -9 19
-18 0 -36 30 -36 59 0 34 45 28 60 -8z m496 7 c30 -29 32 -68 4 -68 -11 0 -23
7 -26 15 -9 22 -27 19 -21 -4 11 -42 -33 -69 -53 -32 -16 31 -12 62 9 68 11 3
21 13 24 24 7 25 34 24 63 -3z m-628 -15 c2 -13 10 -23 18 -23 20 0 29 -27 16
-53 -5 -12 -13 -30 -16 -40 -8 -24 -50 -19 -54 7 -3 11 4 25 13 33 23 16 6 23
-45 20 -29 -2 -36 2 -38 21 -3 18 1 22 21 22 17 0 26 7 30 21 8 29 51 22 55
-8z m230 0 c2 -13 8 -20 16 -17 17 7 38 -20 31 -39 -7 -16 -50 -28 -72 -20 -7
3 -13 16 -13 28 0 13 -4 27 -10 30 -5 3 -10 15 -10 26 0 30 54 23 58 -8z
m-1030 -11 c3 -17 -2 -25 -17 -29 -11 -3 -21 -15 -23 -26 -2 -12 -12 -23 -22
-25 -11 -2 -27 -13 -36 -25 -28 -34 -52 -16 -48 35 3 43 3 43 46 46 32 2 42 7
42 21 0 24 10 32 35 29 12 -2 21 -12 23 -26z m156 -13 c12 -36 2 -59 -28 -59
-19 0 -25 6 -29 33 -9 57 38 79 57 26z m1524 -3 c5 -24 -17 -37 -40 -25 -14 7
-18 6 -18 -6 0 -9 -12 -27 -26 -40 -21 -19 -30 -22 -45 -14 -11 5 -19 13 -19
18 0 17 50 61 68 61 11 0 23 7 26 16 8 21 50 14 54 -10z m-1132 -31 c7 -18
-13 -45 -33 -45 -17 0 -27 24 -19 45 7 20 45 19 52 0z m-441 -55 c0 -18 -6
-26 -23 -28 -24 -4 -38 18 -28 44 3 9 15 14 28 12 17 -2 23 -10 23 -28z m-365
-11 c0 -10 -4 -19 -10 -19 -5 0 -10 12 -10 26 0 14 4 23 10 19 6 -3 10 -15 10
-26z m-50 -15 c0 -8 -5 -12 -10 -9 -6 4 -8 11 -5 16 9 14 15 11 15 -7z m1730
-43 c0 -17 5 -33 10 -36 15 -9 12 -45 -5 -51 -10 -4 -15 -20 -15 -45 0 -26 5
-42 15 -45 8 -4 15 -17 15 -30 0 -20 -5 -24 -28 -24 -41 0 -52 17 -52 82 0 32
-4 58 -10 58 -5 0 -10 11 -10 25 0 14 5 25 10 25 6 0 10 5 10 12 0 14 40 58
52 58 4 0 8 -13 8 -29z m-1680 5 c0 -8 -4 -18 -10 -21 -5 -3 -10 3 -10 14 0
12 5 21 10 21 6 0 10 -6 10 -14z m518 -59 c9 -7 20 -6 36 2 57 31 96 -7 96
-91 0 -27 5 -48 10 -48 6 0 10 -9 10 -20 0 -16 -7 -20 -35 -20 l-35 0 0 49 c0
32 -6 55 -16 65 -25 25 -34 19 -34 -24 0 -22 5 -40 10 -40 16 0 11 -47 -6 -54
-36 -14 -54 -7 -54 22 0 63 -12 102 -31 102 -15 0 -19 -7 -19 -35 0 -19 5 -35
10 -35 6 0 10 -13 10 -29 0 -29 -1 -30 -45 -26 -24 2 -49 6 -55 10 -15 9 -12
42 5 49 17 6 21 71 5 81 -5 3 -10 17 -10 30 0 24 2 25 68 24 37 -1 73 -6 80
-12z m386 -8 c22 -17 26 -28 26 -69 0 -27 5 -50 11 -52 6 -2 8 -14 4 -31 -6
-22 -11 -26 -28 -21 -11 4 -43 6 -69 5 -43 -1 -50 2 -58 24 -19 50 25 104 73
89 19 -6 20 -5 9 9 -9 11 -23 14 -42 11 -38 -8 -49 14 -19 37 31 24 60 24 93
-2z m309 2 c3 -12 -10 -35 -39 -67 -33 -37 -39 -50 -27 -53 9 -1 20 4 25 13
17 31 38 18 38 -23 0 -45 -8 -48 -97 -43 -47 3 -53 6 -53 26 0 13 16 44 35 70
20 25 31 46 25 46 -5 0 -10 -4 -10 -10 0 -5 -9 -10 -20 -10 -11 0 -20 6 -20
13 0 6 -3 22 -6 35 -6 21 -4 22 69 22 64 0 75 -3 80 -19z m256 -7 c12 -15 21
-40 21 -55 0 -28 -1 -29 -55 -29 -56 0 -67 -8 -41 -29 11 -9 20 -10 36 -1 22
12 60 5 60 -10 0 -18 -45 -40 -81 -40 -67 0 -101 79 -64 150 17 32 27 38 72
39 23 1 37 -6 52 -25z m641 -269 c0 -25 -4 -45 -10 -45 -5 0 -10 20 -10 45 0
25 5 45 10 45 6 0 10 -20 10 -45z m-2113 -7 c-3 -8 -6 -5 -6 6 -1 11 2 17 5
13 3 -3 4 -12 1 -19z m2106 -108 c-7 -28 -13 -25 -13 6 0 14 4 23 9 20 5 -3 7
-15 4 -26z m-2053 -142 c0 -36 -4 -35 -14 5 -4 16 -2 27 4 27 5 0 10 -14 10
-32z m319 -11 c0 -21 -1 -21 -9 -2 -12 28 -12 37 0 30 6 -3 10 -16 9 -28z
m311 -30 c0 -5 -4 -5 -10 -2 -5 3 -10 14 -10 23 0 15 2 15 10 2 5 -8 10 -19
10 -23z"/>
<path d="M935 1500 c-4 -6 5 -10 20 -10 15 0 24 4 20 10 -3 6 -12 10 -20 10
-8 0 -17 -4 -20 -10z"/>
<path d="M1147 1433 c-12 -11 -8 -23 8 -23 8 0 15 7 15 15 0 16 -12 20 -23 8z"/>
<path d="M1650 1492 c0 -13 29 -48 30 -35 0 6 3 18 6 27 4 12 0 16 -15 16 -12
0 -21 -4 -21 -8z"/>
<path d="M950 790 c0 -5 7 -10 15 -10 8 0 15 5 15 10 0 6 -7 10 -15 10 -8 0
-15 -4 -15 -10z"/>
<path d="M1500 860 c0 -5 9 -10 20 -10 11 0 20 5 20 10 0 6 -9 10 -20 10 -11
0 -20 -4 -20 -10z"/>
<path d="M51 1314 c0 -11 3 -14 6 -6 3 7 2 16 -1 19 -3 4 -6 -2 -5 -13z"/>
<path d="M52 1270 c0 -14 2 -19 5 -12 2 6 2 18 0 25 -3 6 -5 1 -5 -13z"/>
<path d="M2255 880 c3 -5 8 -10 11 -10 2 0 4 5 4 10 0 6 -5 10 -11 10 -5 0 -7
-4 -4 -10z"/>
<path d="M640 331 c0 -6 4 -13 10 -16 6 -3 7 1 4 9 -7 18 -14 21 -14 7z"/>
</g>
</svg>
